{"title":"TNA.Final.Resolution.Before.The.Bell.WEBRip.x264-wC","uid":6014918,"size":136582151,"categoryP":"video","categoryS":"tv_shows","magnet":"?xt=urn:btih:19e02b82cf031c49833e1d78d10825f0f7495274&amp;dn=TNA.Final.Resolution.Before.The.Bell.WEBRip.x264-wC&amp;tr=udp%3A%2F%2Ftracker.openbittorrent.com%3A80&amp;tr=udp%3A%2F%2Fopen.demonii.com%3A1337&amp;tr=udp%3A%2F%2Ftracker.coppersurfer.tk%3A6969&amp;tr=udp%3A%2F%2Fexodus.desync.com%3A6969","seeders":0,"leechers":1,"uploader":"scene4all","files":-1,"time":1291599694,"description":"---------------------------------------------------------------------------------\n                                                                                \n           SSSSSSSSSSSSSSS       444444444                 AAA                  \n         SS:::::::::::::::S     4::::::::4                A:::A                 \n        S:::::SSSSSS::::::S    4:::::::::4               A:::::A                \n        S:::::S     SSSSSSS   4::::44::::4              A:::::::A               \n        S:::::S              4::::4 4::::4             A:::::::::A              \n        S:::::S             4::::4  4::::4            A:::::A:::::A             \n         S::::SSSS         4::::4   4::::4           A:::::A A:::::A            \n          SS::::::SSSSS   4::::444444::::444        A:::::A   A:::::A           \n            SSS::::::::SS 4::::::::::::::::4       A:::::A     A:::::A          \n               SSSSSS::::S4444444444:::::444      A:::::AAAAAAAAA:::::A         \n                    S:::::S         4::::4       A:::::::::::::::::::::A        \n                    S:::::S         4::::4      A:::::AAAAAAAAAAAAA:::::A       \n        SSSSSSS     S:::::S         4::::4     A:::::A             A:::::A      \n        S::::::SSSSSS:::::S       44::::::44  A:::::A               A:::::A     \n        S:::::::::::::::SS        4::::::::4 A:::::A                 A:::::A    \n         SSSSSSSSSSSSSSS          4444444444AAAAAAA                   AAAAAAA   \n                                                                                \n                                                                                \n---------------------------------------------------------------------------------\n\n                TNA.Final.Resolution.Before.The.Bell.WEBRip.x264-wC              \n\n---------------------------------------------------------------------------------\n\nGeneral\nComplete name                    : TNA.Final.Resolution.Before.The.Bell\nFormat                           : Flash Video\nFile size                        : 130 MiB\nDuration                         : 30mn 0s\nOverall bit rate                 : 607 Kbps\nhttphostheader                   :\n\nVideo\nFormat                           : AVC\nFormat/Info                      : Advanced Video Codec\nFormat profile                   : &lt;a class=&quot;__cf_email__&quot; href=&quot;/cdn-cgi/l/email-protection&quot; data-cfemail=&quot;490428202709057b6779&quot;&gt;[email&amp;#160;protected]&lt;/a&gt;&lt;script cf-hash='f9e31' type=&quot;text/javascript&quot;&gt;\n/* &lt;![CDATA[ */!function(){try{var t=&quot;currentScript&quot;in document?document.currentScript:function(){for(var t=document.getElementsByTagName(&quot;script&quot;),e=t.length;e--;)if(t[e].getAttribute(&quot;cf-hash&quot;))return t[e]}();if(t&amp;&amp;t.previousSibling){var e,r,n,i,c=t.previousSibling,a=c.getAttribute(&quot;data-cfemail&quot;);if(a){for(e=&quot;&quot;,r=parseInt(a.substr(0,2),16),n=2;a.length-n;n+=2)i=parseInt(a.substr(n,2),16)^r,e+=String.fromCharCode(i);e=document.createTextNode(e),c.parentNode.replaceChild(e,c)}}}catch(u){}}();/* ]]&gt; */&lt;/script&gt;\nFormat settings, CABAC           : Yes\nFormat settings, ReFrames        : 3 frames\nDuration                         : 30mn 0s\nBit rate                         : 501 Kbps\nWidth                            : 320 pixels\nHeight                           : 240 pixels\nDisplay aspect ratio             : 4:3\nFrame rate mode                  : Constant\nFrame rate                       : 29.970 fps\nColor space                      : YUV\nChroma subsampling               : 4:2:0\nBit depth                        : 8 bits\nScan type                        : Progressive\nBits/(Pixel*Frame)               : 0.218\nStream size                      : 108 MiB (83%)\n\nAudio\nFormat                           : AAC\nFormat/Info                      : Advanced Audio Codec\nFormat version                   : Version 4\nFormat profile                   : LC\nDuration                         : 30mn 0s\nBit rate                         : 96.7 Kbps\nChannel(s)                       : 2 channels\nChannel positions                : Front: L R\nSampling rate                    : 44.1 KHz\nBit depth                        : 16 bits\nCompression mode                 : Lossy\nStream size                      : 20.8 MiB (16%)\n\n---------------------------------------------------------------------------------\n\nJoin us at: &lt;a href=&quot; http://www.scene4all.net/&quot; rel=&quot;nofollow&quot; target=&quot;_NEW&quot;&gt; http://www.scene4all.net/&lt;/a&gt;\t       \n\nEnjoy!!!","torrent":{"xt":"urn:btih:19e02b82cf031c49833e1d78d10825f0f7495274","amp;dn":"TNA.Final.Resolution.Before.The.Bell.WEBRip.x264-wC","amp;tr":["udp%3A%2F%2Ftracker.openbittorrent.com%3A80","udp%3A%2F%2Fopen.demonii.com%3A1337","udp%3A%2F%2Ftracker.coppersurfer.tk%3A6969","udp%3A%2F%2Fexodus.desync.com%3A6969"],"infoHash":"19e02b82cf031c49833e1d78d10825f0f7495274","infoHashBuffer":{"type":"Buffer","data":[25,224,43,130,207,3,28,73,131,62,29,120,209,8,37,240,247,73,82,116]},"announce":[],"urlList":[]}}